<svg xmlns="http://www.w3.org/2000/svg" viewBox="0 0 24 24" fill="#1e2a4a" role="img" aria-label="Login Shield">
  <path d="M12 1.5 3.5 5v6.2c0 5.1 3.6 9.4 8.5 10.8 4.9-1.4 8.5-5.7 8.5-10.8V5L12 1.5Z" opacity="0.15"/>
  <path fill="none" stroke="#1e2a4a" stroke-width="1.6" d="M12 2.4 4.3 5.6v5.6c0 4.7 3.3 8.6 7.7 9.9 4.4-1.3 7.7-5.2 7.7-9.9V5.6L12 2.4Z"/>
  <circle cx="12" cy="10.4" r="2.4" fill="#12B5A5"/>
  <path fill="#12B5A5" d="M10.9 12.4h2.2l.5 3.6a1 1 0 0 1-1 1.15h-1.2a1 1 0 0 1-1-1.15l.5-3.6Z"/>
</svg>
